<svg xmlns="http://www.w3.org/2000/svg" width="95.332128" height="27.791616" viewBox="0 0 451 132" shape-rendering="geometricPrecision" text-rendering="geometricPrecision" image-rendering="optimizeQuality" fill-rule="evenodd" clip-rule="evenodd"><defs><style>.fil1{fill:#ea5252}.fil0{fill:#161826;fill-rule:nonzero}</style></defs><g id="Layer_x0020_1"><g id="_273154033392"><path class="fil0" d="M309 54c-5 0-8 0-11-1-3 0-5-1-7-2s-3-2-4-3c0-1-1-3-1-5V4l15-2v42l2 2c1 0 2 1 3 1s3 0 5 1l-2 6z"/><g id="_273154036432"><path class="fil1" d="M15 68l9-2h14l-4 2zM51 18l1 8h28l1 1h6l1 1h2l1 1h2l1 1h1l1 1 1 1h1v1l1 1v5l-1 2-2 2-2 2-2 2-3 2-3 2-3 1-3 2-3 1-3 2-3 1-3 1-3 2-2 1h2l2-1 4-2 3-1 4-2 4-2 4-2 4-2 4-2 3-2 4-2 3-3 2-2 2-3 1-2v-7l-1-2h-1l-1-1-1-1-2-1-1-1h-2l-2-1h-2l-2-1h-4l-2-1H78l-2-1H55l-1 1h-1zM65 62h-2l-2 2-2 1-1 2v1l-1 1 1 3v-2l1-1 1-2 2-2zM103 79l-9-3h2l1 1 2 2 1 1 1 2v6l11 7v-8l-1-2-2-2-1-1-3-2z"/><path class="fil1" d="M112 95l-11-7v1l10 8z"/><path class="fil1" d="M111 97l-10-8-1 2-1 1-1 1-1 1-1 1h-1l-2 1-2 1h-3l-2 1h-7l-2 1H59l-3 1h-4l-2 1h-2l-1 1h-2l-1 1-2 1-3 10 1-1h2l2-1 2-1h3l2-1h5l3-1h14l3-1h14l3-1h3l2-1h2l2-1 2-1 2-1 1-1 2-1 1-1 1-2z"/><path class="fil1" d="M39 114l3-10h-1l-1 1-2 1-2 1-1 2v1l-6 13 1-2 1-2 2-1 2-2 2-1zM4 22l11 8 1 1 2 1 2 1 2 1 2 1 2 1-8-6-2-1-2-2-3-1-2-1-3-1zM34 68l4-2V33l1-2v-1l2-1 1-1 2-1 2-1h6l-1-8h-8l-2 1-3 1-2 1-1 1-1 2v2l-1 2v5l1 3v31z"/></g><path class="fil1" d="M15 68h19c0-6-1-12 0-17 1-22-8-34 17-33 11-1 54-3 58 10 5 16-31 27-44 34-32 28 54-1 47 33l-1 2c-5 18-56 6-72 17-4 2-14 7-9 12 10 11 58 2 68-1 19-7 45-25 27-49-21-22-33-7-5-29 15-17 9-36-16-41C81 1 40-4 17 5c-33 13-10 17 1 25v1c-5 0-8-2-8 7 1 9 4 21 5 30zm0 0h19-19z"/><path class="fil0" d="M142 29c0-4 1-7 3-11 1-3 4-5 6-8 3-2 6-3 10-4 3-1 7-2 11-2 9 0 15 2 20 6s8 10 8 19v4h-43c1 4 3 6 6 9 3 2 8 3 14 3 3 0 7 0 10-1 3 0 5-1 7-2l2 10c-1 0-2 0-4 1h-5c-1 1-3 1-6 1h-6c-6 0-10 0-15-1-4-2-7-3-10-6-3-2-5-5-6-8s-2-6-2-10zm43-5c0-1 0-2-1-4 0-1-1-2-2-3s-3-2-4-3c-2 0-4-1-6-1s-4 1-6 1c-2 1-3 2-4 3-2 1-2 2-3 3-1 2-1 3-1 4h27zM268 52c-3 0-7 1-11 1-5 1-10 1-15 1s-10 0-13-1c-4-1-6-3-9-5-2-2-3-4-4-7s-1-6-1-9V5h14v25c0 5 1 9 3 11 2 3 6 4 11 4 2 0 4 0 6-1h4V5h15v47zM345 45h11V33c-1-1-2-1-4-1h-10c-2 0-3 1-5 1-1 1-2 1-3 2s-1 2-1 3c0 3 1 5 3 6 3 1 6 1 9 1zm-1-41c5 0 9 0 12 1 4 1 6 3 8 4 2 2 4 4 5 6 0 3 1 5 1 8v29c-2 0-6 1-10 1-5 1-10 1-16 1-4 0-7 0-10-1-4 0-6-1-9-2-2-1-4-3-5-5s-2-4-2-7 1-5 2-7c2-2 4-4 6-5 3-1 5-2 9-2 3-1 6-1 10-1h5c2 0 4 0 6 1v-2c0-1-1-3-1-4s-1-2-2-3-2-1-4-2c-2 0-4-1-6-1-4 0-7 1-10 1s-5 1-7 1l-2-9c2 0 5-1 9-1 3-1 7-1 11-1zM161 116h7c9 0 15-2 19-5 4-4 6-9 6-16s-2-12-6-16c-4-3-10-5-18-5h-8v42zm45-21c0 5-1 10-3 14s-4 7-8 9c-3 3-7 5-12 6-4 1-10 2-15 2h-10c-3-1-6-1-10-2V66c4-1 7-1 10-1 4-1 7-1 10-1 5 0 11 1 15 2 5 1 9 3 12 6 4 2 6 5 8 9s3 9 3 14zM238 118c4 0 7 0 9-1v-11c0-1-1-1-3-1h-9c-1 0-2 1-3 1-2 1-3 1-3 2-1 1-1 2-1 3 0 3 1 4 3 5 1 1 4 2 7 2zm-1-39c4 0 8 0 11 1s5 2 7 4c2 1 3 3 4 5 0 2 1 5 1 8v27c-2 1-5 1-9 1-4 1-9 1-14 1-3 0-6 0-9-1-3 0-5-1-7-2s-4-3-5-5c-1-1-1-4-1-7 0-2 0-4 2-6 1-2 3-3 5-5 2-1 4-1 7-2 3 0 6-1 9-1 1 0 3 0 4 1h5v-1-4c-1-1-1-2-2-3s-2-1-4-2c-1 0-3-1-5-1-3 0-6 1-8 1-3 0-5 1-6 1l-2-8c2-1 4-1 7-2h10zM276 81c2 0 5-1 9-1 4-1 9-1 14-1 4 0 8 0 11 1s5 3 7 5c2 1 3 4 4 6 1 3 1 6 1 9v25h-13v-24-6c-1-2-1-3-2-4s-2-2-4-2c-1-1-3-1-5-1h-6c-1 0-3 0-3 1v36h-13V81zM351 125h-13V80h13v45zm1-59c0 2 0 4-2 5s-3 2-6 2c-2 0-4-1-5-2-2-1-3-3-3-5s1-3 3-4c1-2 3-2 5-2 3 0 4 0 6 2 2 1 2 2 2 4zM364 103c0-4 1-8 2-11 2-3 4-5 6-7 3-2 5-4 9-5 3-1 6-1 9-1 8 0 14 2 18 5 4 4 7 10 7 18v2c0 1-1 1-1 2h-36c0 3 2 6 4 8 3 2 7 3 13 3h8c3-1 5-1 6-2l2 9c-1 0-2 0-3 1h-4c-2 1-4 1-5 1h-6c-5 0-9 0-13-1-3-2-6-3-9-5-2-2-4-5-5-8s-2-6-2-9zm38-5c0-1-1-3-1-4-1-1-1-3-2-4-1 0-2-1-4-2-1 0-3-1-5-1s-3 1-5 1c-1 1-3 2-4 3s-2 2-2 3c-1 1-1 3-1 4h24z"/><path d="M451 118l-2 8c-4 0-8 0-11-1-3 0-5-1-7-2s-3-3-4-4c0-2-1-3-1-5V68h1V40c0-2-1-4-1-6-1-1-1-2-2-3s-3-2-4-3h-13c-2 0-3 1-4 1v23h-15V2l15-2v21c1-1 3-1 5-1 3 0 5-1 7-1 5 0 9 1 13 2 3 1 6 2 8 4 2 1 3 3 4 6 1 2 1 5 1 8v73c0 1 0 2 1 3 0 0 1 1 1 2 1 0 2 1 3 1h5z" fill="#161826"/></g></g></svg>