<svg xmlns="http://www.w3.org/2000/svg" width="21.891744" height="21.674112" viewBox="0 0 189 188" shape-rendering="geometricPrecision" text-rendering="geometricPrecision" image-rendering="optimizeQuality" fill-rule="evenodd" clip-rule="evenodd"><defs><style>.fil0,.fil2{fill:#abaca7}.fil0{fill-rule:nonzero}</style></defs><g id="Layer_x0020_1"><g id="_273109325776"><path class="fil0" d="M126 50v8H68v-8h58zm-58 8v-8h58v8H68z"/><path id="1" fill="#010002" d="M68 54h58z"/><path class="fil0" d="M38 42v8H9v-8h29zm-25 8l-5-4 5-4h25v8H13zm-5-4v-4h5l-5 4zm10 116l-5 4-5-4V46h10v116zm-5 4H8v-4l5 4zm163-8l5 4-5 4H13v-8h163zm5 4v4h-5l5-4zM171 54l5-4 5 4v108h-10V54zm5-4h5v4l-5-4zm-23 8v-8h23v8h-23zm27-8v8h-27v-8h27zm0 7v1-8h4l1 1h1v1h1v1h1v1h1v3h-9zm9 123h-9V57h9v123zm-9 0h9v3l-1 1v1h-1v1h-2v1h-3l-1 1h-1v-8zM9 188v-8h171v8H9zm1-8H9v8H8v-1H4v-1H3v-1H2l-1-1v-1H0v-3h10zM0 50h10v130H0V50zm9 0h1H0v-3h1v-1h1v-1l1-1h1v-1h3l1-1h1v8z"/><path id="1" class="fil2" d="M9 46h29-25v116h163V54h-23 27c2 0 5 1 5 3v123c0 2-3 4-5 4H9c-3 0-4-2-4-4V50c0-2 1-4 4-4z"/><g><path class="fil0" d="M54 58v-1h-1v8h-3l-1-1h-1l-1-1h-1v-1h-1v-2h-1v-2h10zM44 32h10v26H44V32zM96 8h-7l-2 1h-4l-2 1h-2l-2 1h-2l-1 1h-2l-2 1-1 1-2 1h-1l-2 1-1 1-1 1-1 1-1 1-1 1-1 1-1 1-1 1v1l-1 2v1l-1 1v3H44v-3l1-2v-1l1-2v-2l1-1 1-2 1-1 2-2 1-1 1-1 2-1 1-2 2-1 2-1 2-1 1-1 2-1 2-1 2-1h3l2-1 2-1h2l3-1h5l2-1h8v8zm42 24v-1l-1-1v-2l-1-1v-2l-1-1v-1l-1-1-1-1-1-1-1-1-1-1-1-1-2-1-1-1h-1l-2-1-2-1-1-1h-2l-2-1h-1l-2-1h-2l-2-1h-2l-2-1h-9V0h8l2 1h5l2 1h3l2 1 2 1h2l2 1 2 1 2 1 2 1 2 1 2 1 1 1 2 2 1 1 2 1 1 1 1 2 1 1 1 2 1 1 1 2v2l1 1v4l1 1h-10zm10 26h-10V32h10v26zm-10-26h10v26h-10V32zM104 7h9l2 1h4l2 1h1l2 1h2l2 1 1 1h2l2 1 1 1 2 1 1 1 1 1 2 1 1 1 1 1 1 1 1 1 1 1v1l1 2 1 1v4l1 1h-10v-1l-1-1v-2h-1v-1l-1-1v-1h-1l-1-1v-1l-1-1h-1l-1-1-1-1h-2l-1-1h-1l-1-1h-2l-1-1h-2l-1-1h-3l-2-1h-9V7zM61 32v-2l1-2v-1l1-1v-2l1-1 1-1 1-1 1-1 1-1 1-1 1-1 2-1 1-1 1-1 2-1 1-1h2l2-1 1-1h2l2-1h2l2-1h4l2-1h8v8h-8l-2 1h-3l-2 1h-1l-2 1h-1l-1 1h-2l-1 1h-1l-1 1-1 1h-1l-1 1-1 1v1h-1l-1 1v1l-1 1v1l-1 1v2H61zm10 26H61V32h10v26zm-10-1v1h10v2h-1v2h-1v1h-1l-1 1h-1l-1 1h-4v-8zm-8 8v-8h8v8h-8zm102 5h-3l-5-7h2v-1h6v8zm6 4v-1h-1v-2h-1l-1-1h-3v-8h5l1 1h2l1 1h1l1 1 1 1 1 1v1h1v1l1 1v2h1v2h-10zm-6 5h3v-1h2v-2h1v-2h10v2l-1 1v2h-1v2h-1v1l-1 1-1 1h-1l-1 1h-1l-1 1h-1l-1 1h-5v-8zm-6-5v3h1v1h1l1 1h3v8h-6v-1h-2v-1h-2v-1h-1l-1-1-1-1-1-1-1-1v-2h-1v-4h10zm-4-8l5 6h-1v2h-10v-3h1v-2h1v-1l4 6v-8zm0 0h9l-4 6-5-6zm-2 8l-3-7 3-1h2v8h-2zm0 0h-18l15-7 3 7zm4-11l5 7-7 3-5-6 7-4zm0 0zM47 68v-1 1h1v1l1 1h1v1h3v8h-4l-1-1h-2l-1-1h-1l-1-1h-1v-1h-1v-1h-1v-1h-1v-1l-1-1v-2h-1v-4l10 3zm-10-1v-2 2zm9 1h1l-10-3h1v-1h1v-1l1-1h1v-1h3v-1h2v8zm-1 0h1v-8h1l1 1h3v1h1l1 1 1 1v1h1v3H45zm1-1h-1v1h10v2l-1 1v1h-1v1h-1v1h-2v1h-4v-8zm-7-1l8 2v-1h-1v8h-3l-1-1h-2v-1h-1v-1h-1v-2h-1l9 2-7-6zm0 0l5-5 3 7-8-2zm2 9l-8-3 1-3 5-3 7 6-5 3zm-8-3v-1l1-2-1 3zm-5 13l-1-8h2v-1h2v-1h1v-1h1v-2h10v3h-1v2l-1 1v1h-1v1h-1v1h-1l-1 1h-1v1h-2l-1 1h-4v1h-2l-1-8 2 8zm24-14h1l1 8-26 6-2-8 26-6z"/><path id="1" class="fil2" d="M53 61c-2 0-4-2-4-3V32C49 17 70 4 96 4s47 13 47 28v26-26c0-11-18-21-39-21S66 21 66 32v26c0 1-2 3-5 3h-8zm96 6c2-1 4-1 6-1 6 0 11 4 11 8 0 5-5 9-11 9s-11-4-11-9c0-1 0-3 1-4h-2l6-3zm-96 8c-6 0-11-4-11-8 1-2 2-3 4-3s4 2 4 4-2 3-4 3-3-1-4-2l-4 3c0 5-5 9-11 9l26-6z"/></g></g></g></svg>