<svg xmlns="http://www.w3.org/2000/svg" viewBox="0 0 64 58.67"><defs><style>.cls-1{fill:#ea5252}</style></defs><g id="Layer_2" data-name="Layer 2"><g id="Layer_1-2" data-name="Layer 1"><path class="cls-1" d="M61.33 5.33H48V2.67A2.66 2.66 0 0045.33 0H18.67A2.66 2.66 0 0016 2.67v2.66H2.67a2.67 2.67 0 000 5.34H8v40a8 8 0 008 8h32a8 8 0 008-8v-40h5.33a2.67 2.67 0 100-5.34zM50.67 50.67A2.67 2.67 0 0148 53.33H16a2.67 2.67 0 01-2.67-2.66v-40h37.34z"/><path class="cls-1" d="M24 45.33a2.67 2.67 0 002.67-2.66V21.33a2.67 2.67 0 00-5.34 0v21.34A2.67 2.67 0 0024 45.33zM40 45.33a2.67 2.67 0 002.67-2.66V21.33a2.67 2.67 0 00-5.34 0v21.34A2.67 2.67 0 0040 45.33z"/></g></g></svg>