<?xml version="1.0" encoding="UTF-8"?>
<!DOCTYPE svg PUBLIC "-//W3C//DTD SVG 1.1//EN" "http://www.w3.org/Graphics/SVG/1.1/DTD/svg11.dtd">
<!-- Creator: CorelDRAW X8 -->
<svg xmlns="http://www.w3.org/2000/svg" xml:space="preserve" width="0.0548386in" height="0.0536299in" version="1.1" style="shape-rendering:geometricPrecision; text-rendering:geometricPrecision; image-rendering:optimizeQuality; fill-rule:evenodd; clip-rule:evenodd"
viewBox="0 0 141 138"
 xmlns:xlink="http://www.w3.org/1999/xlink">
 <defs>
  <style type="text/css">
   <![CDATA[
    .str0 {stroke:#ABACA7;stroke-width:10.7284}
    .fil0 {fill:none;fill-rule:nonzero}
   ]]>
  </style>
 </defs>
 <g id="Layer_x0020_1">
  <metadata id="CorelCorpID_0Corel-Layer"/>
  <g>
   <path class="fil0 str0" d="M136 37c0,18 -11,37 -34,55 -16,13 -36,26 -59,37 1,-5 1,-9 1,-13 0,-11 -3,-20 -10,-29 -6,-7 -12,-14 -19,-20 -6,-9 -10,-18 -10,-28 0,-10 4,-18 10,-24 7,-6 15,-10 25,-10 7,0 13,2 19,6 6,4 10,9 12,15 7,-14 17,-21 30,-21 9,0 17,3 24,9 7,6 11,14 11,23z"/>
  </g>
 </g>
</svg>
