<svg xmlns="http://www.w3.org/2000/svg" width="29.444064" height="29.444064" viewBox="0 0 142 142" shape-rendering="geometricPrecision" text-rendering="geometricPrecision" image-rendering="optimizeQuality" fill-rule="evenodd" clip-rule="evenodd"><circle cx="71" cy="71" r="71" fill="#abaca7"/><path d="M37 114h69c17 0 9-31-34-31-42 0-55 31-35 31h0zm28-85c-21 7-10 44 13 34 24-9 9-41-13-34z" fill="none" stroke="#fff" stroke-width="12.084" stroke-linecap="square"/><path d="M37 114h69c17 0 9-31-34-31-42 0-55 31-35 31zm28-85c-21 7-10 44 13 34 24-9 9-41-13-34z" fill="#fff"/></svg>