<svg xmlns="http://www.w3.org/2000/svg" width="62.46048" height="33.672576" viewBox="0 0 410 221" shape-rendering="geometricPrecision" text-rendering="geometricPrecision" image-rendering="optimizeQuality" fill-rule="evenodd" clip-rule="evenodd"><circle cx="300" cy="111" r="111" fill="#595959"/><path d="M247 178h107c26 0 14-48-52-48-67 0-87 48-55 48h0zm43-133c-32 11-16 68 21 54 36-15 13-65-21-54z" fill="none" stroke="#fff" stroke-width="18.7906" stroke-linecap="square"/><path d="M247 178h107c26 0 14-48-52-48-67 0-87 48-55 48zm43-133c-32 11-16 68 21 54 36-15 13-65-21-54z" fill="#fff"/><path d="M24 95L0 71l24-23 23 23-23 24zm11-58l23-24 24 24-24 24-23-24zm58 11l24 23-24 24-24-24 24-23zm-11 58l-24 24-23-24 23-23 24 23z" fill-rule="nonzero"/></svg>